<?xml version="1.0" encoding="UTF-8" standalone="no"?>
<!DOCTYPE svg PUBLIC "-//W3C//DTD SVG 1.1//EN" "http://www.w3.org/Graphics/SVG/1.1/DTD/svg11.dtd">
<svg width="100%" height="100%" viewBox="0 0 400 400" version="1.1" xmlns="http://www.w3.org/2000/svg" xmlns:xlink="http://www.w3.org/1999/xlink" xml:space="preserve" xmlns:serif="http://www.serif.com/" style="fill-rule:evenodd;clip-rule:evenodd;stroke-linecap:round;stroke-linejoin:round;stroke-miterlimit:1.5;">
    <g transform="matrix(1,0,0,1,-38.2365,-42.247)">
        <g transform="matrix(0.996214,0,0,1.00361,38.5415,39.9945)">
            <rect x="-0.204" y="2.312" width="401.513" height="398.498" style="fill:white;"/>
        </g>
        <g transform="matrix(1.10889,0,0,1.10889,127.292,150.621)">
            <text x="0px" y="0px" style="font-family:'Helvetica';font-size:66.667px;">Gradient</text>
            <g transform="matrix(66.667,0,0,66.667,250.131,66.667)">
            </g>
            <text x="5.566px" y="66.667px" style="font-family:'Helvetica';font-size:66.667px;">Descent</text>
        </g>
        <g transform="matrix(1.1691,0,0,1.08228,29.6325,24.0869)">
            <path d="M17.568,29.34C17.568,29.34 10.808,374.111 340.577,372.969" style="fill:none;stroke:rgb(105,186,201);stroke-width:3.11px;"/>
        </g>
        <g transform="matrix(1,0,0,1,38.2365,42.247)">
            <path d="M9.382,12.51L9.308,388.017C9.308,388.017 390.39,389.331 390.049,388.708" style="fill:none;stroke:black;stroke-width:2.5px;"/>
        </g>
    </g>
</svg>
