<?xml version="1.0" encoding="UTF-8" standalone="no"?>
<!DOCTYPE svg PUBLIC "-//W3C//DTD SVG 1.1//EN" "http://www.w3.org/Graphics/SVG/1.1/DTD/svg11.dtd">
<svg width="100%" height="100%" viewBox="0 0 700 200" version="1.1" xmlns="http://www.w3.org/2000/svg" xmlns:xlink="http://www.w3.org/1999/xlink" xml:space="preserve" xmlns:serif="http://www.serif.com/" style="fill-rule:evenodd;clip-rule:evenodd;stroke-linecap:round;stroke-linejoin:round;stroke-miterlimit:1.5;">
    <g transform="matrix(1,0,0,1,-15.3812,6.40359)">
        <path d="M6.962,89.454L55.667,57.547L81.347,129.608L113.831,155.065L167.421,105.195L175.175,69.757L231.146,94.102L247.668,131.534L257.695,104.464L264.478,141.404L267.788,172.757L318.581,197.572L333.484,140.021L331.853,110.526L336.24,72.68L372.993,69.021L376.352,96.476L392.446,148.372L399.359,183.216L419.774,135.58L442.651,99.717L445.896,71.547L464.322,84.34L470.877,102.957L479.763,120.985L490.329,109.393L493.215,78.697L509.489,72.51L514.054,94.788L525.697,158.469L552.242,179.25L573.864,138.526L616.194,77.315L643.522,137.506L666.334,171.624L685.607,133.291L697.315,108.793L719.181,100.736" style="fill:none;stroke:rgb(105,186,201);stroke-width:2.08px;"/>
    </g>
    <path d="M-9.083,144.237L77.872,64.986L95.926,120.198L103.482,138.85L115.227,128.93L131.445,87.044L147.842,73.123L164.185,103.59L173.381,134.379L183.486,187.56L188.94,168.202L194.518,36.947L239.608,65.11L255.292,95.317L263.561,120.731L281.152,132.682L290.669,115.665L290.794,82.313L294.483,43.511L322.232,136.348L341.533,190.582L381.241,137.661L389.974,81.272L396.871,31.498L456.718,58.286L464.542,108.383L480.493,145.278L519.934,123.22L534.762,68.405L538.237,43.907L557.271,49.158L563.651,85.929L569.158,173.713L618.704,184.612L638.202,102.079L656.844,53.629L667.091,72.009L673.187,93.608L687.569,102.414L700.633,98.797L723.802,101.287" style="fill:none;stroke:rgb(180,221,228);stroke-width:2.08px;"/>
    <path d="M-2.453,34.718L14.015,160.709L32.924,192.353L51.691,143.048L66.27,53.629L86.141,-1.719L113.124,52.899L128.808,161.242L151.264,198.335L177.587,122.7L184.27,153.093L197.013,171.682L199.508,152.114L202.984,123.282L216.172,161.96L217.099,181.85L241.515,176.475L251.032,149.092L268.748,64.986L280.884,39.449L283.255,72.467L297.174,131.035L305.96,137.599L323.551,137.859L334.975,111.863L335.884,63.934L351.514,26.903L372.847,13.242L380.528,85.533L393.592,141.141L422.268,172.723L446.88,170.295L473.008,138.392L495.179,74.832L524.852,40.885L542.568,78.907L544.225,116.458L554.384,170.431L566.539,183.299L585.965,147.321L616.619,94.921L624.746,59.079L655.471,39.647L685.591,16.598L704.162,7.867" style="fill:none;stroke:rgb(44,111,124);stroke-width:2.08px;"/>
    <g transform="matrix(1.22608,0,0,1.22608,-49.596,-20.0143)">
        <g transform="matrix(217.916,0,0,217.916,599.692,175.932)">
        </g>
        <text x="46.709px" y="175.932px" style="font-family:'ArialMT', 'Arial', sans-serif;font-size:217.916px;fill:rgb(129,129,129);">SOL<tspan x="466.58px " y="175.932px ">T</tspan></text>
    </g>
</svg>
